HIERARCHY
ROOT Hips
{
  OFFSET 3.13124 94.3669 -3.18751
  CHANNELS  6 Xposition Yposition Zposition Zrotation Xrotation Yrotation
  JOINT LeftUpLeg
  {
    OFFSET 8.64259 1.95398 -2.38835
    CHANNELS 3 Zrotation Xrotation Yrotation
    JOINT LeftLeg
    {
      OFFSET 43.7702 0 0
      CHANNELS 3 Zrotation Xrotation Yrotation
      JOINT LeftFoot
      {
        OFFSET 40.6238 0 0
        CHANNELS 3 Zrotation Xrotation Yrotation
        JOINT LeftToeBase
        {
          OFFSET 12.7242 0 0
          CHANNELS 3 Zrotation Xrotation Yrotation
          End Site
          {
            OFFSET 0 0 0
          }
        }
      }
    }
  }
  JOINT RightUpLeg
  {
    OFFSET -8.2249 1.95398 -2.59336
    CHANNELS 3 Zrotation Xrotation Yrotation
    JOINT RightLeg
    {
      OFFSET 43.5653 0 0
      CHANNELS 3 Zrotation Xrotation Yrotation
      JOINT RightFoot
      {
        OFFSET 40.6238 0 0
        CHANNELS 3 Zrotation Xrotation Yrotation
        JOINT RightToeBase
        {
          OFFSET 12.7242 0 0
          CHANNELS 3 Zrotation Xrotation Yrotation
          End Site
          {
            OFFSET 0 0 0
          }
        }
      }
    }
  }
  JOINT Spine
  {
    OFFSET 0.165834 0.87714 6.61349
    CHANNELS 3 Zrotation Xrotation Yrotation
    JOINT Spine1
    {
      OFFSET 7.38962 1.71661e-005 0
      CHANNELS 3 Zrotation Xrotation Yrotation
      JOINT Spine2
      {
        OFFSET 11.9445 1.14441e-005 0
        CHANNELS 3 Zrotation Xrotation Yrotation
        JOINT Spine3
        {
          OFFSET 14.7254 4.19617e-005 0
          CHANNELS 3 Zrotation Xrotation Yrotation
          JOINT Spine4
          {
            OFFSET 10.9679 0 0
            CHANNELS 3 Zrotation Xrotation Yrotation
            JOINT RightShoulder
            {
              OFFSET 2.46616 -1.6653 3.69651
              CHANNELS 3 Zrotation Xrotation Yrotation
              JOINT RightArm
              {
                OFFSET 13.0012 0 0
                CHANNELS 3 Zrotation Xrotation Yrotation
                JOINT RightForeArm
                {
                  OFFSET 28.7848 1.52588e-005 0
                  CHANNELS 3 Zrotation Xrotation Yrotation
                  JOINT RightHand
                  {
                    OFFSET 26.5688 1.52588e-005 0
                    CHANNELS 3 Zrotation Xrotation Yrotation
                    End Site
                    {
                      OFFSET 0 0 0
                    }
                  }
                }
              }
            }
            JOINT LeftShoulder
            {
              OFFSET 2.38034 -1.29275 -3.75231
              CHANNELS 3 Zrotation Xrotation Yrotation
              JOINT LeftArm
              {
                OFFSET 16.3182 6.10352e-005 0
                CHANNELS 3 Zrotation Xrotation Yrotation
                JOINT LeftForeArm
                {
                  OFFSET 27.0901 0 0
                  CHANNELS 3 Zrotation Xrotation Yrotation
                  JOINT LeftHand
                  {
                    OFFSET 24.5451 1.52588e-005 0
                    CHANNELS 3 Zrotation Xrotation Yrotation
                    End Site
                    {
                      OFFSET 0 0 0
                    }
                  }
                }
              }
            }
            JOINT Neck
            {
              OFFSET 5.0226 -0.0266342 0
              CHANNELS 3 Zrotation Xrotation Yrotation
              JOINT Head
              {
                OFFSET 6.69363 2.86102e-005 0
                CHANNELS 3 Zrotation Xrotation Yrotation
                End Site
                {
                  OFFSET 0 0 0
                }
              }
            }
          }
        }
      }
    }
  }
}
MOTION
Frames:	13
Frame Time:	0.0333333
62.3584 91.8579 99.3794 -46.818 82.8128 -135.743 -179.432 21.657 84.11 -39.9275 -4.70165 -0.021081 76.721 -2.73001 -0.907718 28.7808 6.86584e-006 3.02911e-006 166.657 28.1167 84.9788 -50.0284 -50.4288 -0.0435853 65.4771 6.73644 -25.5485 28.7808 1.96868e-005 3.08331e-005 -0.218399 7.15567 -88.952 12.5591 -0.0728655 0.0619056 0.888175 -0.0700655 0.0650535 -21.647 -0.0882148 0.037163 -1.63434 -0.0882256 0.0371417 102.168 -18.241 -82.126 69.7922 -53.1378 23.6354 14.2588 14.3725 -73.3648 -4.17824 -32.797 -36.4825 -77.7624 -21.1186 97.0892 -50.7607 59.6001 3.66814 10.822 -1.81905 -59.7782 -17.3019 -3.77894 -14.346 9.54517 4.55418 -3.10598 -10.7108 4.81985 4.94214 
62.351 91.5086 99.4674 -51.0022 83.4014 -131.847 -179.377 21.1937 83.5492 -40.6586 -5.02781 -0.0329207 78.1301 -1.24022 -0.220312 28.7808 6.86584e-006 3.02911e-006 170.377 27.7765 85.5773 -53.3709 -50.4719 -2.60347 66.4344 7.25258 -29.6116 28.7808 1.96868e-005 3.08331e-005 -0.225713 7.24604 -88.7999 12.3776 -0.0546533 0.135164 0.70669 -0.048854 0.137485 -21.8285 -0.0919129 0.112364 -1.8158 -0.0919211 0.112349 102.168 -18.241 -82.126 69.0551 -54.5874 23.0278 16.3916 15.2331 -74.0479 -5.0128 -32.7968 -37.8071 -77.7624 -21.1186 97.0892 -49.4094 59.8889 2.49046 10.8868 -0.934624 -59.8504 -17.0343 -5.35149 -15.4156 9.57561 4.54356 -3.3173 -10.7426 4.86087 4.94803 
62.333 91.3189 99.4537 -53.512 83.3802 -129.482 -179.404 20.9435 83.1387 -40.7416 -6.28325 -0.110924 79.3427 -0.368553 0.178997 28.7808 6.86584e-006 3.02911e-006 170.983 27.8952 85.8502 -53.9766 -47.8186 -2.20507 62.5975 4.43302 -30.0591 28.7808 1.96868e-005 3.08331e-005 -0.252629 7.25168 -88.7688 12.365 -0.106733 0.220183 0.694038 -0.0969467 0.224681 -21.8411 -0.167961 0.176334 -1.82839 -0.16797 0.176304 102.168 -18.241 -82.126 67.784 -54.468 21.4638 13.6783 14.123 -72.0891 -4.33578 -28.2862 -37.8799 -77.7623 -21.1186 97.0892 -48.4808 60.4514 1.81905 10.7637 -0.620067 -60.0114 -16.8414 -6.44441 -15.9476 9.10845 4.54561 -3.485 -10.5778 4.90249 4.86187 
62.3057 91.2481 99.4728 -54.3989 82.5695 -128.516 -179.39 21.365 83.4289 -40.8754 -5.48597 -0.0539081 79.9492 -1.53309 -0.256862 28.7808 6.86584e-006 3.02911e-006 168.077 28.0533 85.3219 -51.665 -44.4698 0.489219 65.2413 3.29548 -27.1597 28.7808 1.96868e-005 3.08331e-005 -0.300147 7.15741 -88.8441 12.5525 -0.213389 0.252715 0.881504 -0.202035 0.261634 -21.6537 -0.279767 0.17843 -1.64102 -0.27978 0.178407 102.168 -18.241 -82.126 67.735 -52.773 21.5242 16.8968 14.0056 -73.3109 -3.58118 -32.0245 -37.133 -77.7623 -21.1186 97.0892 -48.0905 60.6663 1.47204 10.6168 -0.573285 -59.7467 -17.9511 -6.60993 -16.3529 8.81121 4.37465 -3.58884 -10.7268 4.75468 4.75775 
62.2763 91.3299 99.5609 -54.259 81.5625 -128.327 -179.383 22.1865 84.239 -41.2318 -3.68684 0.0734901 80.3418 -5.15452 -1.64371 28.7808 6.86584e-006 3.02911e-006 164.295 28.4946 84.7232 -49.5912 -42.5329 2.63524 64.7089 1.43746 -22.0597 28.7808 1.96868e-005 3.08331e-005 -0.300636 7.04564 -89.0862 12.777 -0.279284 0.247166 1.10611 -0.268195 0.259581 -21.4292 -0.340305 0.150715 -1.41655 -0.340316 0.150701 102.168 -18.241 -82.126 67.7243 -50.7992 21.6394 17.3427 13.2468 -73.3714 -2.28887 -33.6461 -35.9328 -77.7623 -21.1186 97.0892 -47.6199 61.2122 0.921103 10.2401 -0.684624 -59.1254 -18.8915 -6.34164 -16.7637 8.91164 4.03866 -3.77498 -10.9257 4.46413 4.73822 
62.1928 91.1463 99.7102 -53.3043 80.8815 -128.908 -179.284 23.2805 84.8676 -42.2719 -1.9241 0.197939 80.8872 -7.16436 -2.37721 28.7808 6.86584e-006 3.02911e-006 161.518 29.5306 84.1245 -48.6226 -47.1276 4.28056 64.2243 2.86387 -21.1471 28.7808 1.96868e-005 3.08331e-005 -0.306283 6.98256 -89.1972 12.9035 -0.317298 0.178297 1.23257 -0.309165 0.19211 -21.3029 -0.356362 0.0746777 -1.29022 -0.356354 0.0746808 102.168 -18.241 -82.126 67.4317 -49.9581 21.5193 18.5803 13.0074 -73.5955 -0.986425 -35.2769 -34.611 -77.7623 -21.1186 97.0892 -47.4516 61.27 0.5627 9.6769 -0.930358 -58.6648 -19.1074 -5.61768 -16.6107 9.66873 3.79771 -4.14511 -11.3943 4.2907 5.06903 
62.0423 90.788 99.8824 -51.4922 80.7536 -130.358 -179.147 24.2152 85.0339 -43.4931 -1.26742 0.256681 81.7327 -6.41581 -2.01247 28.7808 6.86584e-006 3.02911e-006 160.537 30.8976 83.2603 -48.1989 -49.2405 6.41028 62.5722 3.84019 -18.9943 28.7808 1.96868e-005 3.08331e-005 -0.312059 6.96307 -89.2117 12.943 -0.329225 0.0594565 1.27205 -0.325941 0.0738762 -21.2634 -0.331175 -0.0420129 -1.25078 -0.331184 -0.0420188 102.168 -18.241 -82.126 66.3423 -51.4134 20.6322 16.4196 12.7015 -72.497 -1.30382 -33.2172 -35.3903 -77.7623 -21.1186 97.0892 -47.6142 61.316 0.572587 9.48459 -0.950043 -58.4347 -19.213 -5.80658 -16.8142 10.2347 3.78611 -4.20194 -11.7749 4.27971 5.25368 
61.9742 90.4076 100.106 -49.948 81.0894 -131.276 -178.993 25.0182 85.287 -44.9389 -1.49547 0.269707 82.2247 -4.24199 -1.16225 28.7808 6.86584e-006 3.02911e-006 161.826 31.5129 83.8061 -49.4122 -49.8514 6.24703 62.2584 4.70775 -19.0487 28.7808 1.96868e-005 3.08331e-005 -0.281424 6.97845 -89.2553 12.9114 -0.28449 -0.108281 1.24045 -0.289008 -0.0956854 -21.2949 -0.238795 -0.188696 -1.28222 -0.238799 -0.188713 102.168 -18.241 -82.126 65.8066 -53.6747 20.4012 14.9106 12.8662 -72.1236 -0.442549 -31.826 -34.8714 -77.7623 -21.1186 97.0892 -47.2878 61.5039 -0.0239548 8.88568 -0.57108 -57.9266 -19.2715 -5.79519 -17.09 10.5773 3.69807 -4.54043 -12.0725 4.23663 5.64501 
61.9394 90.0642 100.374 -49.5493 81.7768 -131.391 -178.886 25.3588 85.2458 -46.1729 -1.50911 0.293725 82.7018 -2.02115 -0.317054 28.7808 6.86584e-006 3.02911e-006 165.157 31.7395 84.9451 -52.2698 -51.5568 4.0359 63.0948 6.63002 -24.1584 28.7808 1.96868e-005 3.08331e-005 -0.239536 7.05729 -89.2665 12.7561 -0.202873 -0.171269 1.08517 -0.21018 -0.161952 -21.45 -0.142253 -0.225836 -1.43731 -0.142256 -0.225831 102.168 -18.241 -82.126 65.1621 -56.6515 19.9797 14.9439 13.8261 -72.1515 -2.00838 -29.3727 -36.058 -77.7623 -21.1186 97.0892 -46.2824 61.7235 -1.3738 8.51079 0.21184 -57.4228 -19.4794 -5.77024 -17.2725 10.6691 3.70633 -5.06422 -11.9695 4.35293 6.01674 
61.9192 89.7484 100.495 -51.1668 82.8301 -130.086 -178.778 25.0126 84.6107 -47.109 -2.13788 0.279473 82.9804 -0.488725 0.253662 28.7808 6.86584e-006 3.02911e-006 169.37 31.5366 85.7417 -56.1604 -53.2445 0.730189 64.6971 8.55186 -29.8984 28.7808 1.96868e-005 3.08331e-005 -0.194294 7.20395 -89.1923 12.4638 -0.0989127 -0.0662844 0.792896 -0.101763 -0.0618656 -21.7423 -0.0745025 -0.0929603 -1.72963 -0.0745029 -0.0929625 102.168 -18.241 -82.126 64.0422 -60.3382 19.0811 15.0103 15.126 -72.1713 -4.38218 -27.0424 -38.6127 -77.7623 -21.1186 97.0892 -43.8884 63.1775 -3.67918 8.63713 0.739454 -57.1995 -18.3056 -7.62465 -18.6669 10.7916 3.67011 -5.59604 -11.6918 4.44774 6.24182 
61.9361 89.3352 100.455 -53.8445 83.903 -127.833 -178.648 24.7675 83.9219 -48.4397 -4.4374 0.165631 83.2235 -0.0444588 0.42393 28.7808 6.86584e-006 3.02911e-006 171.882 31.5306 86.049 -59.2713 -53.6975 -0.897229 64.5344 9.48958 -33.6928 28.7808 1.96868e-005 3.08331e-005 -0.166167 7.32321 -89.0469 12.2238 -0.00623362 0.0465727 0.552887 -0.00418069 0.0466907 -21.9823 -0.0187639 0.0427076 -1.9696 -0.0187653 0.0426997 102.168 -18.241 -82.126 62.1903 -63.4063 17.726 15.6942 15.7322 -72.1619 -5.67546 -24.6087 -39.3158 -77.7623 -21.1186 97.0892 -41.892 63.5658 -5.36707 8.54668 1.54478 -57.4266 -17.0955 -9.0505 -20.0501 10.343 3.69947 -5.7491 -11.5895 4.50634 6.18274 
61.9519 88.8568 100.364 -52.8234 84.2706 -128.983 -178.469 25.4215 83.7671 -50.1152 -5.73355 0.113829 83.6999 -1.36165 -0.0307011 28.7808 6.86584e-006 3.02911e-006 171.127 31.792 85.7225 -58.9748 -53.003 0.868588 64.5227 7.02428 -34.8113 28.7808 1.96868e-005 3.08331e-005 -0.179389 7.30119 -88.9542 12.2716 -0.00644895 0.0665206 0.600698 -0.00352099 0.0667523 -21.9344 -0.027309 0.061517 -1.92181 -0.0273108 0.0615031 102.168 -18.241 -82.126 60.1056 -65.1694 16.5236 16.1441 15.4033 -71.9789 -7.1849 -20.1215 -40.8766 -77.7623 -21.1186 97.0892 -41.5971 63.1222 -5.53875 9.06122 2.29376 -57.7763 -17.2939 -9.53703 -19.9944 8.68106 3.88088 -5.38652 -10.8145 4.60038 5.79076 
61.9278 88.6387 100.253 -52.9292 84.043 -128.626 -178.497 26.0842 84.4194 -51.2836 -5.23053 0.174228 83.6643 -3.64501 -0.842314 28.7808 6.86584e-006 3.02911e-006 167.713 32.1306 85.0812 -57.5444 -51.5648 3.23858 63.6528 4.6094 -30.756 28.7808 1.96868e-005 3.08331e-005 -0.177363 7.22942 -89.1202 12.4128 -0.0623574 0.0274473 0.74181 -0.061112 0.0301567 -21.7933 -0.0677134 0.00737493 -1.78069 -0.067727 0.00735499 102.168 -18.241 -82.126 58.5907 -64.2806 15.7757 15.1745 13.6529 -71.2682 -6.70501 -18.4761 -40.6883 -77.7623 -21.1186 97.0892 -41.7155 62.2224 -5.6315 8.56303 2.85372 -57.337 -18.331 -8.34071 -19.0096 7.47071 3.88155 -4.97661 -10.3635 4.50816 5.34853 
